HIERARCHY
ROOT Hips
{
	OFFSET 0.00000 0.00000 0.00000
	CHANNELS 6 Xposition Yposition Zposition Zrotation Yrotation Xrotation 
	JOINT LHipJoint
	{
		OFFSET 0 0 0
		CHANNELS 3 Zrotation Yrotation Xrotation
		JOINT LeftUpLeg
		{
			OFFSET 1.75344 -1.53157 0.77399
			CHANNELS 3 Zrotation Yrotation Xrotation
			JOINT LeftLeg
			{
				OFFSET 2.25415 -6.19323 0.00000
				CHANNELS 3 Zrotation Yrotation Xrotation
				JOINT LeftFoot
				{
					OFFSET 2.30342 -6.32861 0.00000
					CHANNELS 3 Zrotation Yrotation Xrotation
					JOINT LeftToeBase
					{
						OFFSET 0.10958 -0.30108 1.49206
						CHANNELS 3 Zrotation Yrotation Xrotation
						End Site
						{
							OFFSET 0.00000 -0.00000 0.77783
						}
					}
				}
			}
		}
	}
	JOINT RHipJoint
	{
		OFFSET 0 0 0
		CHANNELS 3 Zrotation Yrotation Xrotation
		JOINT RightUpLeg
		{
			OFFSET -1.81912 -1.53156 0.77399
			CHANNELS 3 Zrotation Yrotation Xrotation
			JOINT RightLeg
			{
				OFFSET -2.22882 -6.12365 0.00000
				CHANNELS 3 Zrotation Yrotation Xrotation
				JOINT RightFoot
				{
					OFFSET -2.21943 -6.09785 0.00000
					CHANNELS 3 Zrotation Yrotation Xrotation
					JOINT RightToeBase
					{
						OFFSET -0.18931 -0.52012 1.59379
						CHANNELS 3 Zrotation Yrotation Xrotation
						End Site
						{
							OFFSET -0.00000 -0.00000 0.84686
						}
					}
				}
			}
		}
	}
	JOINT LowerBack
	{
		OFFSET 0 0 0
		CHANNELS 3 Zrotation Yrotation Xrotation
		JOINT Spine
		{
			OFFSET -0.00200 1.66634 -0.14248
			CHANNELS 3 Zrotation Yrotation Xrotation
			JOINT Spine1
			{
				OFFSET -0.00875 1.64542 0.09514
				CHANNELS 3 Zrotation Yrotation Xrotation
				JOINT Neck
				{
					OFFSET 0 0 0
					CHANNELS 3 Zrotation Yrotation Xrotation
					JOINT Neck1
					{
						OFFSET 0.02257 1.59605 0.00839
						CHANNELS 3 Zrotation Yrotation Xrotation
						JOINT Head
						{
							OFFSET -0.10214 1.57530 -0.23335
							CHANNELS 3 Zrotation Yrotation Xrotation
							End Site
							{
								OFFSET -0.03588 1.60717 -0.08062
							}
						}
					}
				}
				JOINT LeftShoulder
				{
					OFFSET 0 0 0
					CHANNELS 3 Zrotation Yrotation Xrotation
					JOINT LeftArm
					{
						OFFSET 2.54983 1.10186 0.40078
						CHANNELS 3 Zrotation Yrotation Xrotation
						JOINT LeftForeArm
						{
							OFFSET 4.28840 -0.00000 0.00000
							CHANNELS 3 Zrotation Yrotation Xrotation
							JOINT LeftHand
							{
								OFFSET 3.06552 -0.00000 -0.00000
								CHANNELS 3 Zrotation Yrotation Xrotation
								JOINT LeftFingerBase
								{
									OFFSET 0 0 0
									CHANNELS 3 Zrotation Yrotation Xrotation
									JOINT LeftHandIndex1
									{
										OFFSET 0.75304 -0.00000 0.00000
										CHANNELS 3 Zrotation Yrotation Xrotation
										End Site
										{
											OFFSET 0.60712 -0.00000 0.00000
										}
									}
								}
								JOINT LThumb
								{
									OFFSET 0 0 0
									CHANNELS 3 Zrotation Yrotation Xrotation
									End Site
									{
										OFFSET 0.61639 -0.00000 0.61639
									}
								}
							}
						}
					}
				}
				JOINT RightShoulder
				{
					OFFSET 0 0 0
					CHANNELS 3 Zrotation Yrotation Xrotation
					JOINT RightArm
					{
						OFFSET -2.60909 1.35448 0.21802
						CHANNELS 3 Zrotation Yrotation Xrotation
						JOINT RightForeArm
						{
							OFFSET -4.52172 -0.00000 -0.00000
							CHANNELS 3 Zrotation Yrotation Xrotation
							JOINT RightHand
							{
								OFFSET -2.89140 -0.00000 0.00000
								CHANNELS 3 Zrotation Yrotation Xrotation
								JOINT RightFingerBase
								{
									OFFSET 0 0 0
									CHANNELS 3 Zrotation Yrotation Xrotation
									JOINT RightHandIndex1
									{
										OFFSET -0.68054 -0.00000 0.00000
										CHANNELS 3 Zrotation Yrotation Xrotation
										End Site
										{
											OFFSET -0.54867 -0.00000 0.00000
										}
									}
								}
								JOINT RThumb
								{
									OFFSET 0 0 0
									CHANNELS 3 Zrotation Yrotation Xrotation
									End Site
									{
										OFFSET -0.55705 -0.00000 0.55705
									}
								}
							}
						}
					}
				}
			}
		}
	}
}
MOTION
Frames: 15
Frame Time: .0083333
7.9273 15.0086 42.3401 0 0 0 0 0 0 -21 0 0 0 0 0 0 0 0 0 0 0 0 0 0 21 0 0 0 0 0 0 0 0 0 0 0 0 0 0 0 0 0 0 0 0 0 0 -16 0 0 21 0 0 11 0 0 0 -8 0 0 0 0 0 0 0 0 0 0 0 0 0 0 0 0 0 0 0 0 8 0 0 0 0 0 0 0 0 0 0 0 0 0 0 0 0 0
7.9273 15.0086 42.3401 -179.8250 -3.6759 176.0770 0.0000 0.0000 0.0000 -30.1904 -23.1115 2.1969 2.7861 10.3404 30.0862 2.1979 10.6622 -33.4634 0.0118 -0.7025 -1.9305 0.0000 0.0000 0.0000 24.0417 11.9355 -2.9093 -3.0211 -10.7291 31.3716 -1.1703 -16.8195 -32.4469 -0.0005 -0.1376 0.3782 2.6203 0.0346 8.9953 -0.9537 0.2734 -1.2016 -2.5149 0.0205 -6.2985 -5.4646 -2.1779 -6.1967 5.7019 -4.2523 18.4591 2.3752 -2.3286 6.8646 -0.0000 0.0000 0.0000 -85.0269 9.8869 38.3441 20.3803 -31.0978 -5.7265 -0.0000 -0.0000 15.2192 -5.8270 -31.0382 3.0121 -7.1250 0.0000 -0.0000 -20.9417 0.5251 22.2987 -0.0000 0.0000 0.0000 83.8255 -8.4304 52.1462 -17.1899 27.1074 -4.1735 0.0000 0.0000 18.6734 -4.5177 -53.7055 3.6438 7.1250 -0.0000 -0.0000 72.5573 -73.1454 -55.0961
7.9377 15.0176 42.3379 -179.8420 -3.2704 176.4520 0.0000 0.0000 0.0000 -29.9389 -22.9993 1.7747 2.7681 10.3099 29.9861 2.2634 10.3129 -33.6044 0.0023 0.3065 0.8422 0.0000 0.0000 0.0000 24.0326 12.3958 -3.2229 -3.0269 -10.7385 31.4030 -1.1923 -16.3986 -32.1703 -0.0003 -0.1056 0.2900 2.2937 0.1918 8.6074 -0.8678 0.4460 -1.2749 -2.2610 0.1210 -6.1464 -5.4137 -2.1679 -6.3986 5.6991 -4.2183 18.4462 2.3665 -2.2994 6.8933 -0.0000 0.0000 0.0000 -85.0290 9.8818 38.3385 20.4157 -31.1400 -5.7448 -0.0000 -0.0000 15.0270 -6.3670 -30.9179 3.2813 -7.1250 0.0000 -0.0000 -21.2339 0.6567 22.6077 -0.0000 0.0000 0.0000 83.6693 -8.4337 52.5543 -17.2561 27.1941 -4.2037 0.0000 0.0000 18.1709 -5.4373 -53.2685 4.3624 7.1250 -0.0000 -0.0000 70.7247 -73.3594 -53.6420
7.9454 15.0252 42.3331 -179.9270 -2.8449 176.7640 0.0000 0.0000 0.0000 -29.8621 -22.9397 1.5196 2.7400 10.2617 29.8284 2.2927 10.3712 -33.8085 0.0052 0.4677 1.2851 0.0000 0.0000 0.0000 23.9360 12.8115 -3.4833 -3.0371 -10.7549 31.4575 -1.1763 -16.2569 -31.9336 -0.0002 -0.0796 0.2186 2.0461 0.3610 8.2458 -0.8424 0.6411 -1.3414 -2.1171 0.2281 -6.0020 -5.4600 -2.1633 -6.1952 5.7002 -4.1933 18.2303 2.3792 -2.2899 6.7874 0.0000 -0.0000 0.0000 -85.0058 9.9794 38.4452 20.4426 -31.1719 -5.7587 -0.0000 -0.0000 15.1479 -5.6577 -30.9065 2.9130 -7.1250 0.0000 -0.0000 -20.8560 0.6429 22.1480 0.0000 -0.0000 0.0000 83.6172 -8.4489 52.7416 -17.2803 27.2258 -4.2148 0.0000 0.0000 17.8491 -6.2112 -53.1627 4.9781 7.1250 -0.0000 -0.0000 70.0110 -73.6112 -53.2733
7.9538 15.0324 42.3289 -180.0100 -2.4217 177.0560 0.0000 0.0000 0.0000 -29.7877 -22.8708 1.2563 2.7180 10.2239 29.7049 2.3352 10.4037 -34.0679 0.0137 0.7552 2.0754 0.0000 0.0000 0.0000 23.8584 13.2561 -3.6935 -3.0416 -10.7621 31.4818 -1.1485 -16.2434 -31.7472 -0.0002 -0.0826 0.2270 1.7724 0.5445 7.9509 -0.8048 0.8562 -1.4213 -1.9478 0.3451 -5.9111 -5.3729 -2.2186 -6.3360 5.5875 -4.2447 18.2446 2.3224 -2.3113 6.8164 -0.0000 -0.0000 0.0000 -85.0248 10.0255 38.5584 20.3497 -31.0614 -5.7107 -0.0000 -0.0000 15.3603 -4.3777 -31.1740 2.2693 -7.1250 0.0000 -0.0000 -20.1617 0.3376 21.4168 -0.0000 -0.0000 0.0000 83.5733 -8.4686 52.7955 -17.3010 27.2529 -4.2243 0.0000 0.0000 17.7712 -6.3353 -53.3409 5.0896 7.1250 -0.0000 -0.0000 70.5410 -73.7075 -53.8721
7.9639 15.0406 42.3269 -180.0190 -2.0200 177.4180 0.0000 0.0000 0.0000 -29.5868 -22.8459 0.8809 2.7010 10.1946 29.6091 2.3650 10.4285 -34.2503 0.0294 1.1074 3.0443 0.0000 0.0000 0.0000 23.8398 13.6976 -3.9952 -3.0426 -10.7637 31.4870 -1.1435 -16.1809 -31.6549 -0.0006 -0.1551 0.4262 1.5716 0.7097 7.5709 -0.7628 1.0544 -1.4842 -1.8096 0.4523 -5.7558 -5.2560 -2.2581 -6.4707 5.3841 -4.2577 18.2445 2.2347 -2.3182 6.8352 -0.0000 0.0000 0.0000 -85.0169 9.9762 38.5596 20.3352 -31.0440 -5.7032 -0.0000 -0.0000 15.0951 -4.5104 -31.4330 2.3557 -7.1250 0.0000 -0.0000 -20.2260 0.0993 21.5830 -0.0000 0.0000 0.0000 83.5545 -8.4229 52.8615 -17.3271 27.2869 -4.2362 0.0000 0.0000 17.6480 -6.7423 -53.2735 5.4129 7.1250 -0.0000 -0.0000 70.1285 -73.8378 -53.6402
7.9840 15.0530 42.3215 -180.0020 -1.2154 178.1240 0.0000 0.0000 0.0000 -29.1721 -22.8270 0.1297 2.6851 10.1669 29.5190 2.3698 10.6887 -34.4467 0.0280 1.0795 2.9676 0.0000 0.0000 0.0000 23.8340 14.6147 -4.5712 -3.0464 -10.7698 31.5075 -1.0925 -16.2065 -31.3583 -0.0008 -0.1863 0.5118 1.1556 1.0347 6.7736 -0.6661 1.4461 -1.6157 -1.5055 0.6643 -5.4357 -4.8928 -2.3187 -6.7567 4.8217 -4.2760 18.4382 1.9868 -2.3399 6.9314 -0.0000 -0.0000 0.0000 -84.9953 9.9351 38.5771 20.4053 -31.1276 -5.7394 -0.0000 -0.0000 14.8388 -5.0155 -31.5014 2.6256 -7.1250 0.0000 -0.0000 -20.4939 0.0570 21.9266 -0.0000 -0.0000 0.0000 83.5820 -8.3152 52.7047 -17.3201 27.2778 -4.2330 0.0000 0.0000 17.8533 -6.7679 -53.2917 5.4347 7.1250 -0.0000 -0.0000 70.1775 -73.8523 -53.7019
7.9886 15.0495 42.3163 -179.9910 -1.5151 177.9650 0.0000 0.0000 0.0000 -29.2028 -22.7726 0.3579 2.6728 10.1456 29.4494 2.3033 10.6819 -34.0723 0.0077 0.5684 1.5620 0.0000 0.0000 0.0000 23.9425 14.4844 -4.3388 -3.0532 -10.7808 31.5440 -1.0928 -16.3530 -31.5053 -0.0023 -0.3115 0.8559 1.0931 0.9550 6.7936 -0.6360 1.3360 -1.4997 -1.4254 0.6142 -5.3312 -4.3417 -2.3508 -7.0488 3.9968 -4.2403 18.7054 1.6264 -2.3475 7.0406 0.0000 0.0000 0.0000 -84.9833 9.9160 38.6283 20.4340 -31.1616 -5.7542 -0.0000 -0.0000 14.8844 -5.1325 -31.4955 2.6866 -7.1250 0.0000 -0.0000 -20.5565 0.0675 21.9995 0.0000 0.0000 0.0000 83.6387 -8.2057 52.4340 -17.2758 27.2199 -4.2127 0.0000 0.0000 18.2185 -6.3622 -53.4925 5.1213 7.1250 -0.0000 -0.0000 71.0326 -73.7593 -54.3862
7.9848 15.0514 42.3163 -180.1190 -1.2094 178.0570 0.0000 0.0000 0.0000 -29.3372 -22.7229 0.2838 2.6601 10.1234 29.3773 2.2818 10.8469 -34.0617 0.0105 0.6626 1.8209 0.0000 0.0000 0.0000 23.7032 14.4932 -4.5296 -3.0608 -10.7929 31.5845 -1.0954 -16.1042 -31.2758 -0.0000 -0.0119 0.0328 1.0142 1.0377 6.6845 -0.6511 1.4375 -1.4790 -1.4052 0.6675 -5.2459 -5.1282 -2.3078 -6.3260 5.0945 -4.2027 17.6303 2.1281 -2.2839 6.6027 -0.0000 0.0000 0.0000 -85.0478 9.8886 38.5075 20.4242 -31.1500 -5.7492 -0.0000 -0.0000 14.9776 -5.0793 -31.4854 2.6579 -7.1250 0.0000 -0.0000 -20.5284 0.0748 21.9623 -0.0000 0.0000 0.0000 83.5952 -8.1344 52.4668 -17.2692 27.2113 -4.2097 0.0000 0.0000 18.2499 -6.5043 -53.7168 5.2510 7.1250 -0.0000 -0.0000 71.7224 -73.8708 -55.1550
7.9828 15.0528 42.3192 -180.2420 -0.7956 178.1870 0.0000 0.0000 0.0000 -29.4307 -22.6473 0.1203 2.6516 10.1084 29.3286 2.2504 11.1828 -34.1121 0.0117 0.6989 1.9206 0.0000 0.0000 0.0000 23.4706 14.6498 -4.7686 -3.0691 -10.8061 31.6286 -1.1051 -15.8582 -31.0958 -0.0006 0.1562 -0.4293 0.9012 1.1302 6.6121 -0.6479 1.5507 -1.4821 -1.3490 0.7273 -5.2075 -4.6652 -2.3184 -6.9468 4.1887 -4.1293 18.2627 1.7557 -2.2855 6.8852 0.0000 -0.0000 0.0000 -85.1671 9.8334 38.2920 20.4039 -31.1259 -5.7387 -0.0000 -0.0000 15.0510 -4.3024 -31.3225 2.2397 -7.1250 0.0000 -0.0000 -20.1174 0.1939 21.4159 0.0000 -0.0000 0.0000 83.4580 -8.0623 52.7564 -17.2883 27.2363 -4.2185 0.0000 0.0000 18.1358 -7.0475 -53.7824 5.6958 7.1250 -0.0000 -0.0000 71.7163 -74.0869 -55.3963
7.9854 15.0513 42.3150 -180.2580 -1.2793 178.0410 0.0000 0.0000 0.0000 -29.4776 -22.6246 0.2933 2.6463 10.0992 29.2987 2.1991 11.1453 -33.7981 0.0018 0.2720 0.7474 0.0000 0.0000 0.0000 23.5449 14.4797 -4.5424 -3.0706 -10.8084 31.6364 -1.1472 -16.0063 -31.5080 -0.0010 -0.2054 0.5644 0.8564 0.9462 6.6382 -0.6134 1.3031 -1.3608 -1.2600 0.6083 -5.1043 -4.9274 -2.3282 -6.9717 4.5076 -4.1266 18.0076 1.9035 -2.2652 6.8188 -0.0000 0.0000 0.0000 -85.2471 9.7429 38.2175 20.4005 -31.1219 -5.7369 -0.0000 -0.0000 15.0461 2.9912 -34.5553 -1.6977 -7.1250 0.0000 -0.0000 -16.2235 -3.4126 17.8749 -0.0000 0.0000 0.0000 83.3480 -7.9637 52.9812 -17.2839 27.2305 -4.2164 0.0000 0.0000 18.1052 -7.4412 -53.7459 6.0124 7.1250 -0.0000 -0.0000 71.4280 -74.2224 -55.2822
7.9867 15.0509 42.3141 -180.1840 -1.3906 178.0020 0.0000 0.0000 0.0000 -29.4032 -22.6335 0.3324 2.6484 10.1029 29.3106 2.2427 10.9156 -33.8878 0.0043 0.4255 1.1691 0.0000 0.0000 0.0000 23.6662 14.4418 -4.4765 -3.0685 -10.8052 31.6256 -1.1355 -16.1282 -31.5535 -0.0012 -0.2243 0.6161 0.9306 0.9243 6.6362 -0.5994 1.2809 -1.3078 -1.2839 0.5961 -5.0472 -4.6332 -2.3510 -7.1357 4.0299 -4.1173 18.2092 1.6984 -2.2792 6.8975 -0.0000 0.0000 0.0000 -85.2124 9.6832 38.2900 20.4097 -31.1328 -5.7417 -0.0000 -0.0000 14.9643 0.6949 -33.5068 -0.3836 -7.1250 0.0000 -0.0000 -17.4247 -2.2017 18.9671 -0.0000 0.0000 0.0000 83.3982 -7.9605 52.8872 -17.3013 27.2533 -4.2244 0.0000 0.0000 18.2246 -7.4878 -53.8498 6.0582 7.1250 -0.0000 -0.0000 71.7686 -74.2658 -55.6490
7.9897 15.0511 42.3097 -180.0810 -1.6971 178.0340 0.0000 0.0000 0.0000 -29.2561 -22.7130 0.3042 2.6539 10.1125 29.3419 2.2659 10.6306 -33.8283 0.0031 0.3592 0.9869 0.0000 0.0000 0.0000 23.8271 14.3873 -4.4258 -3.0594 -10.7905 31.5766 -1.1214 -16.3920 -31.7239 -0.0006 -0.1576 0.4329 0.9987 0.8264 6.5234 -0.5773 1.1565 -1.2921 -1.2833 0.5337 -4.9694 -5.3042 -2.3079 -6.5029 5.1515 -4.1267 17.3626 2.1809 -2.2350 6.5492 -0.0000 0.0000 0.0000 -85.1876 9.6979 38.2749 20.3914 -31.1110 -5.7322 -0.0000 -0.0000 14.9985 -4.5607 -31.5312 2.3887 -7.1250 0.0000 -0.0000 -20.2502 0.0089 21.6460 -0.0000 0.0000 0.0000 83.4393 -8.0285 52.8008 -17.3518 27.3192 -4.2475 0.0000 0.0000 18.2799 -7.4477 -53.8407 6.0249 7.1250 -0.0000 -0.0000 71.7533 -74.2488 -55.6154
7.9868 15.0493 42.3149 -180.1380 -1.2794 178.0590 0.0000 0.0000 0.0000 -29.3109 -22.6003 0.2027 2.6588 10.1210 29.3695 2.2786 10.7715 -33.9935 0.0037 0.3942 1.0830 0.0000 0.0000 0.0000 23.6892 14.4944 -4.5266 -3.0549 -10.7834 31.5528 -1.1071 -16.1773 -31.4218 -0.0000 -0.0175 0.0481 0.9781 0.9605 6.6097 -0.5941 1.3335 -1.3162 -1.3102 0.6209 -5.0385 -4.8889 -2.3168 -6.7223 4.4977 -4.0863 17.6402 1.9017 -2.2386 6.6542 -0.0000 -0.0000 0.0000 -85.2030 9.7051 38.2150 20.3313 -31.0394 -5.7012 -0.0000 -0.0000 15.1542 -5.4900 -31.0697 2.8397 -7.1250 0.0000 -0.0000 -20.7608 0.4829 22.0928 -0.0000 -0.0000 0.0000 83.3776 -8.0273 52.9047 -17.3660 27.3378 -4.2541 0.0000 0.0000 18.2040 -7.4224 -53.8008 6.0013 7.1250 -0.0000 -0.0000 71.6254 -74.2295 -55.4741
7.9882 15.0494 42.3129 -180.1840 -1.4827 178.0130 0.0000 0.0000 0.0000 -29.3333 -22.5260 0.2096 2.6613 10.1255 29.3840 2.2747 10.5604 -33.8315 0.0013 0.2312 0.6353 0.0000 0.0000 0.0000 23.6616 14.3903 -4.4428 -3.0494 -10.7747 31.5236 -1.1182 -16.1833 -31.4979 -0.0006 -0.1593 0.4376 0.9274 0.9067 6.6009 -0.6084 1.2562 -1.2698 -1.2874 0.5844 -4.9879 -5.0474 -2.3577 -6.5260 4.7876 -4.1370 17.2241 2.0208 -2.2432 6.4983 0.0000 0.0000 0.0000 -85.1829 9.6519 38.2380 20.2801 -30.9783 -5.6748 -0.0000 -0.0000 15.1821 -6.1607 -30.8210 3.1655 -7.1250 0.0000 -0.0000 -21.1279 0.7411 22.4437 0.0000 0.0000 0.0000 83.3577 -7.9910 52.9386 -17.3602 27.3302 -4.2514 0.0000 0.0000 18.1746 -7.4308 -53.7748 6.0062 7.1250 -0.0000 -0.0000 71.5323 -74.2260 -55.3833
